# xmcd
#
# Track frame offsets:
#	150
#	11818
#	25729
#	38314
#	50527
#	63674
#	72882
#	86733
#	98969
#	111445
#	123645
#	136453
#	149814
#	163838
#	176441
#	184824
#	197110
#	210756
#	222273
#	232686
#	243352
#	256168
#	269579
#	282181
#	295239
#	309207
#	323063
#
# Disc length: 4458 seconds
#
# Revision: 1
# Processed by: cddbd v1.5.2PL0 Copyright (c) Steve Scherf et al.
# Submitted via: audiograbber 1.83.01
#
DISCID=9111681b
DTITLE=Various Artist - Boogieology - The Atlas Records Story
DYEAR=1900
DGENRE=Blues
TTITLE0=King Cole Trio - Got a Penny Benny
TTITLE1=Oscar Moore and the Three Blazers - Melancholy Madame
TTITLE2=Oscar Moore and the Three Blazers - Fugue In C Major
TTITLE3=Luke Jones with Joe Alexander's Highlanders - Jump the Boogie
TTITLE4=Red Mack and his Orchestra - Black Man's Blues
TTITLE5=Red Mack and his Orchestra - If You Love Me Baby
TTITLE6=King Cole Trio - FST (Fine, Sweet and Tasty)
TTITLE7=The Four Vagabonds - I Can't Make Up My Mind
TTITLE8=Luke Jones and his Five Joes - What You Bet
TTITLE9=Luke Jones with Joe Alexander's Highlanders - Ditch Diggin' Daddy
TTITLE10=Luke Jones and his Orchestra - Boogieology
TTITLE11=Oscar Moore and the Three Blazers - Tell Me You'll Wait For Me
TTITLE12=Luke Jones and his Five Joes - Feeling Low Down
TTITLE13=Merle Travis - That's All
TTITLE14=Luke Jones with Joe Alexander's Highlanders - Shufflin' Boogie
TTITLE15=Luke Jones with Joe Alexander's Highlanders - Graveyard Blues
TTITLE16=Johnny Moore's Three Blazers with Frankie Lane - Maureen
TTITLE17=Luke Jones with Joe Alexander's Highlanders - She's My Baby
TTITLE18=Luke Jones with Joe Alexander's Highlanders - Midnight Blues
TTITLE19=Luke Jones and his Orchestra - Take the U Car
TTITLE20=Luke Jones and his Orchestra - Say Hello To Miss Brown
TTITLE21=Luke Jones and his Orchestra - Me Love
TTITLE22=Johnny Moore's Three Blazers - Nightfall
TTITLE23=Luke Jones with Joe Alexander's Highlanders - Worryin' Anyhow Blues
TTITLE24=Luke Jones and his Orchestra - Why Do I Get Those Blues
TTITLE25=Luke Jones and his Orchestra - Disc Jockey Blues
TTITLE26=Red Murrell and his Ozark Playboys - Steel Guitar Rag
EXTD=
EXTT0=
EXTT1=
EXTT2=
EXTT3=
EXTT4=
EXTT5=
EXTT6=
EXTT7=
EXTT8=
EXTT9=
EXTT10=
EXTT11=
EXTT12=
EXTT13=
EXTT14=
EXTT15=
EXTT16=
EXTT17=
EXTT18=
EXTT19=
EXTT20=
EXTT21=
EXTT22=
EXTT23=
EXTT24=
EXTT25=
EXTT26=
PLAYORDER=
